<svg width="195" height="24" viewBox="0 0 195 24" fill="none" xmlns="http://www.w3.org/2000/svg">
<g clip-path="url(#clip0_1_230)">
<path d="M19 9L20.25 6.25L23 5L20.25 3.75L19 1L17.75 3.75L15 5L17.75 6.25L19 9Z" fill="#464646"/>
<path d="M19 15L17.75 17.75L15 19L17.75 20.25L19 23L20.25 20.25L23 19L20.25 17.75L19 15Z" fill="#464646"/>
<path d="M11.5 9.5L9 4L6.5 9.5L1 12L6.5 14.5L9 20L11.5 14.5L17 12L11.5 9.5ZM9.99 12.99L9 15.17L8.01 12.99L5.83 12L8.01 11.01L9 8.83L9.99 11.01L12.17 12L9.99 12.99Z" fill="#464646"/>
</g>
<path d="M33.184 17.5V6.14H35.392V17.5H33.184ZM39.9701 10.204V17.5H37.7621V6.14H39.5221L45.3941 13.628V6.156H47.6021V17.5H45.7621L39.9701 10.204ZM54.6853 17.58C53.9493 17.58 53.2506 17.4307 52.5893 17.132C51.9386 16.8333 51.3626 16.4227 50.8613 15.9C50.3706 15.3667 49.9866 14.748 49.7093 14.044C49.4319 13.34 49.2933 12.5773 49.2933 11.756C49.2933 10.9773 49.4319 10.2467 49.7093 9.564C49.9866 8.87067 50.3759 8.26267 50.8773 7.74C51.3786 7.21733 51.9653 6.80667 52.6373 6.508C53.3093 6.20933 54.0399 6.06 54.8293 6.06C55.8959 6.06 56.8079 6.28933 57.5653 6.748C58.3333 7.196 58.9093 7.79333 59.2933 8.54L57.6453 9.756C57.3573 9.19067 56.9519 8.75867 56.4293 8.46C55.9173 8.16133 55.3573 8.012 54.7493 8.012C54.2693 8.012 53.8319 8.11333 53.4373 8.316C53.0426 8.51867 52.7013 8.796 52.4133 9.148C52.1253 9.5 51.9013 9.90533 51.7413 10.364C51.5919 10.8227 51.5173 11.308 51.5173 11.82C51.5173 12.364 51.5973 12.8653 51.7573 13.324C51.9279 13.7827 52.1626 14.1827 52.4613 14.524C52.7706 14.8653 53.1279 15.1373 53.5333 15.34C53.9386 15.532 54.3866 15.628 54.8773 15.628C55.4533 15.628 56.0026 15.4787 56.5253 15.18C57.0586 14.8813 57.5546 14.444 58.0133 13.868V16.044C57.0639 17.068 55.9546 17.58 54.6853 17.58ZM57.8533 13.276H55.5653V11.66H59.6773V17.5H57.8533V13.276ZM61.303 17.5V15.196H63.063V17.5H61.303ZM68.9965 17.5V6.14H73.1245C74.3618 6.14 75.3965 6.396 76.2285 6.908C77.0605 7.40933 77.6845 8.092 78.1005 8.956C78.5165 9.80933 78.7245 10.7587 78.7245 11.804C78.7245 12.956 78.4952 13.9587 78.0365 14.812C77.5778 15.6653 76.9272 16.3267 76.0845 16.796C75.2525 17.2653 74.2658 17.5 73.1245 17.5H68.9965ZM76.5005 11.804C76.5005 11.068 76.3672 10.4227 76.1005 9.868C75.8338 9.30267 75.4498 8.86533 74.9485 8.556C74.4472 8.236 73.8392 8.076 73.1245 8.076H71.2045V15.564H73.1245C73.8498 15.564 74.4632 15.404 74.9645 15.084C75.4658 14.7533 75.8445 14.3053 76.1005 13.74C76.3672 13.164 76.5005 12.5187 76.5005 11.804ZM88.3376 15.564V17.5H80.4496V6.14H88.1936V8.076H82.6576V10.812H87.4416V12.604H82.6576V15.564H88.3376ZM92.267 10.204V17.5H90.059V6.14H91.819L97.691 13.628V6.156H99.899V17.5H98.059L92.267 10.204ZM102.262 17.5V6.14H104.47V17.5H102.262ZM113.608 9.116C113.534 9.04133 113.395 8.94 113.192 8.812C113 8.684 112.76 8.56133 112.472 8.444C112.195 8.32667 111.891 8.22533 111.56 8.14C111.23 8.044 110.894 7.996 110.552 7.996C109.955 7.996 109.502 8.108 109.192 8.332C108.894 8.556 108.744 8.87067 108.744 9.276C108.744 9.58533 108.84 9.83067 109.032 10.012C109.224 10.1933 109.512 10.348 109.896 10.476C110.28 10.604 110.76 10.7427 111.336 10.892C112.083 11.0733 112.728 11.2973 113.272 11.564C113.827 11.82 114.248 12.1613 114.536 12.588C114.835 13.004 114.984 13.5587 114.984 14.252C114.984 14.86 114.872 15.3827 114.648 15.82C114.424 16.2467 114.115 16.5933 113.72 16.86C113.326 17.1267 112.878 17.324 112.376 17.452C111.875 17.5693 111.342 17.628 110.776 17.628C110.211 17.628 109.646 17.5693 109.08 17.452C108.515 17.3347 107.971 17.1693 107.448 16.956C106.926 16.732 106.446 16.4653 106.008 16.156L106.984 14.252C107.08 14.348 107.251 14.476 107.496 14.636C107.742 14.7853 108.04 14.94 108.392 15.1C108.744 15.2493 109.128 15.3773 109.544 15.484C109.96 15.5907 110.382 15.644 110.808 15.644C111.406 15.644 111.859 15.5427 112.168 15.34C112.478 15.1373 112.632 14.8493 112.632 14.476C112.632 14.1347 112.51 13.868 112.264 13.676C112.019 13.484 111.678 13.3187 111.24 13.18C110.803 13.0307 110.286 12.8707 109.688 12.7C108.974 12.4973 108.376 12.2733 107.896 12.028C107.416 11.772 107.059 11.452 106.824 11.068C106.59 10.684 106.472 10.204 106.472 9.628C106.472 8.84933 106.654 8.19867 107.016 7.676C107.39 7.14267 107.891 6.74267 108.52 6.476C109.15 6.19867 109.848 6.06 110.616 6.06C111.15 6.06 111.651 6.11867 112.12 6.236C112.6 6.35333 113.048 6.508 113.464 6.7C113.88 6.892 114.254 7.1 114.584 7.324L113.608 9.116ZM120.497 17.5V6.14H122.705V15.564H128.497V17.5H120.497ZM137.728 15.564V17.5H129.84V6.14H137.584V8.076H132.048V10.812H136.832V12.604H132.048V15.564H137.728ZM139.45 17.5V6.14H141.658V17.5H139.45ZM145.196 6.14L148.268 14.876L151.308 6.14H153.628L149.324 17.5H147.196L142.876 6.14H145.196ZM157.006 6.14H159.246L163.422 17.5H161.15L160.094 14.668H156.126L155.086 17.5H152.814L157.006 6.14ZM159.694 13.116L158.126 8.428L156.494 13.116H159.694ZM167.692 19.436V17.5H173.564V19.436H167.692ZM175.606 17.5V6.14H177.814V15.564H183.606V17.5H175.606ZM184.95 17.5V6.14H189.974C190.496 6.14 190.976 6.24667 191.414 6.46C191.862 6.67333 192.246 6.96133 192.566 7.324C192.896 7.68667 193.147 8.092 193.318 8.54C193.499 8.988 193.59 9.44667 193.59 9.916C193.59 10.396 193.504 10.86 193.334 11.308C193.174 11.7453 192.939 12.1293 192.63 12.46C192.32 12.7907 191.958 13.0467 191.542 13.228L194.134 17.5H191.702L189.366 13.692H187.158V17.5H184.95ZM187.158 11.756H189.926C190.203 11.756 190.448 11.676 190.662 11.516C190.875 11.3453 191.046 11.1213 191.174 10.844C191.302 10.5667 191.366 10.2573 191.366 9.916C191.366 9.55333 191.291 9.23867 191.142 8.972C190.992 8.69467 190.8 8.476 190.566 8.316C190.342 8.156 190.096 8.076 189.83 8.076H187.158V11.756Z" fill="#464646"/>
<defs>
<clipPath id="clip0_1_230">
<rect width="24" height="24" fill="white"/>
</clipPath>
</defs>
</svg>
